<svg xmlns="http://www.w3.org/2000/svg" viewBox="0 0 1200 675" width="1200" height="675" role="img">
  <defs>
    <linearGradient id="ceu" x1="0" y1="0" x2="0" y2="1">
      <stop offset="0%" stop-color="#EDF5F9"/>
      <stop offset="55%" stop-color="#D2E7F1"/>
      <stop offset="100%" stop-color="#AFD3E5"/>
    </linearGradient>
    <radialGradient id="vinheta" cx="50%" cy="42%" r="78%">
      <stop offset="62%" stop-color="#000" stop-opacity="0"/>
      <stop offset="100%" stop-color="#000" stop-opacity="0.16"/>
    </radialGradient>
    <filter id="desfoque" x="-25%" y="-25%" width="150%" height="150%">
      <feGaussianBlur stdDeviation="23"/>
    </filter>
    <filter id="medio" x="-30%" y="-30%" width="160%" height="160%">
      <feGaussianBlur stdDeviation="8.8"/>
    </filter>
    <filter id="suave" x="-40%" y="-40%" width="180%" height="180%">
      <feGaussianBlur stdDeviation="8.2"/>
    </filter>
    <filter id="grao">
      <feTurbulence type="fractalNoise" baseFrequency="0.9" numOctaves="2" stitchTiles="stitch"/>
      <feColorMatrix type="matrix" values="0 0 0 0 0  0 0 0 0 0  0 0 0 0 0  0.7 0.7 0.7 0 0"/>
    </filter>
  </defs>

  <rect width="1200" height="675" fill="url(#ceu)"/>
  <g filter="url(#desfoque)">
    <rect x="-120" y="243" width="1440" height="202.5" fill="#8FAE9E" opacity="1"/>
    <ellipse cx="240" cy="270" rx="408" ry="87.8" fill="#7B9C8B" opacity="1"/>
    <ellipse cx="1020" cy="283.5" rx="360" ry="108" fill="#68907E" opacity="1"/>
    <rect x="-120" y="351" width="1440" height="371.3" fill="#79B4CD" opacity="1"/>
    <rect x="-120" y="405" width="1440" height="33.8" fill="#9CCADE" opacity="0.85"/>
    <rect x="-120" y="486" width="1440" height="27" fill="#8FC2D8" opacity="0.7"/>
    <ellipse cx="120" cy="641.3" rx="432" ry="135" fill="#3E5F54" opacity="1"/>
    <ellipse cx="1104" cy="621" rx="360" ry="121.5" fill="#466B5E" opacity="1"/>
  </g>
  
  <g filter="url(#suave)">
    <ellipse cx="680.2" cy="430.7" rx="113.8" ry="5.4" fill="#EAF6FB" opacity="0.7"/>
    <ellipse cx="763.1" cy="493.2" rx="61.5" ry="5.4" fill="#EAF6FB" opacity="0.7"/>
    <ellipse cx="535.5" cy="384.8" rx="89.7" ry="5.4" fill="#EAF6FB" opacity="0.7"/>
    <ellipse cx="442.3" cy="487.4" rx="99.9" ry="5.4" fill="#EAF6FB" opacity="0.7"/>
    <ellipse cx="940.4" cy="467.5" rx="66.2" ry="5.4" fill="#EAF6FB" opacity="0.7"/>
  </g>
  <rect width="1200" height="675" fill="url(#vinheta)"/>
  <rect width="1200" height="675" filter="url(#grao)" opacity="0.055"/>
</svg>
