<svg xmlns="http://www.w3.org/2000/svg" viewBox="0 0 900 600" width="900" height="600" role="img">
  <defs><linearGradient id="ceu" x1="0" y1="0" x2="0" y2="1">
      <stop offset="0%" stop-color="#FBE3C6"/>
      <stop offset="55%" stop-color="#F5B989"/>
      <stop offset="100%" stop-color="#E08F5E"/>
    </linearGradient></defs>
  <rect width="900" height="600" fill="url(#ceu)"/>
  <circle cx="666" cy="120" r="45" fill="#FFF3DF" opacity="0.85"/>

  <path d="M0 600 L0 252 Q90 232.3 180 256.3 Q270 214.7 360 238.7 Q450 234.1 540 258.1 Q630 253.6 720 277.6 Q810 202.2 900 226.2 L900 600 Z" fill="#B98060"/>
  <path d="M0 600 L0 312 Q75 277 150 298.6 Q225 283.8 300 305.4 Q375 296.2 450 317.8 Q525 296.7 600 318.3 Q675 306.6 750 328.2 Q825 288 900 309.6 L900 600 Z" fill="#8A5744"/>
  <g><rect x="396.3" y="312" width="45.2" height="42" fill="#FFF6EC"/><path d="M395.5 312 L418.9 295.5 L442.3 312 Z" fill="#B4232E"/><rect x="449.3" y="318.7" width="54.7" height="35.3" fill="#FFF6EC"/><path d="M448.5 318.7 L476.6 302.3 L504.7 318.7 Z" fill="#B4232E"/><rect x="503.2" y="303.4" width="48.1" height="50.6" fill="#FFF6EC"/><path d="M502.4 303.4 L527.3 287 L552.1 303.4 Z" fill="#B4232E"/><rect x="556.7" y="314.6" width="70.9" height="39.4" fill="#FFF6EC"/><path d="M555.9 314.6 L592.2 298.1 L628.4 314.6 Z" fill="#B4232E"/><rect x="608.4" y="312.5" width="50.4" height="41.5" fill="#FFF6EC"/><path d="M607.6 312.5 L633.6 296.1 L659.6 312.5 Z" fill="#B4232E"/><rect x="661.9" y="304.4" width="69.8" height="49.6" fill="#FFF6EC"/><path d="M661.1 304.4 L696.8 288 L732.5 304.4 Z" fill="#B4232E"/><rect x="715.5" y="297.6" width="57.5" height="56.4" fill="#FFF6EC"/><path d="M714.7 297.6 L744.2 281.2 L773.8 297.6 Z" fill="#B4232E"/><rect x="768.8" y="320.6" width="53.8" height="33.4" fill="#FFF6EC"/><path d="M768 320.6 L795.7 304.2 L823.4 320.6 Z" fill="#B4232E"/><rect x="608.2" y="234" width="37.9" height="120" fill="#FFF6EC"/><path d="M606.8 234 L627.2 189.8 L647.5 234 Z" fill="#B4232E"/><rect x="622.1 " y="259.3" width="10.1" height="21.5" fill="#B4232E" opacity="0.75"/></g>
  <path d="M0 600 L0 408 Q64.3 407.2 128.6 426.4 Q192.9 398.3 257.1 417.5 Q321.4 371.1 385.7 390.3 Q450 372 514.3 391.2 Q578.6 384.4 642.9 403.6 Q707.1 379.6 771.4 398.8 Q835.7 396.3 900 415.5 L900 600 Z" fill="#5E3A33"/>
  <path d="M-18 432 Q450 422.6 918 432" fill="none" stroke="#FFFFFF" stroke-width="1.4" opacity="0.22"/>
    <path d="M-18 446.2 Q450 437.7 918 446.2" fill="none" stroke="#FFFFFF" stroke-width="1.4" opacity="0.22"/>
    <path d="M-18 460.4 Q450 452.7 918 460.4" fill="none" stroke="#FFFFFF" stroke-width="1.4" opacity="0.22"/>
    <path d="M-18 474.5 Q450 467.7 918 474.5" fill="none" stroke="#FFFFFF" stroke-width="1.4" opacity="0.22"/>
    <path d="M-18 488.7 Q450 482.8 918 488.7" fill="none" stroke="#FFFFFF" stroke-width="1.4" opacity="0.22"/>
    <path d="M-18 502.9 Q450 497.8 918 502.9" fill="none" stroke="#FFFFFF" stroke-width="1.4" opacity="0.22"/>
    <path d="M-18 517.1 Q450 512.8 918 517.1" fill="none" stroke="#FFFFFF" stroke-width="1.4" opacity="0.22"/>
    <path d="M-18 531.3 Q450 527.9 918 531.3" fill="none" stroke="#FFFFFF" stroke-width="1.4" opacity="0.22"/>
    <path d="M-18 545.5 Q450 542.9 918 545.5" fill="none" stroke="#FFFFFF" stroke-width="1.4" opacity="0.22"/>
    <path d="M-18 559.6 Q450 557.9 918 559.6" fill="none" stroke="#FFFFFF" stroke-width="1.4" opacity="0.22"/>
    <path d="M-18 573.8 Q450 573 918 573.8" fill="none" stroke="#FFFFFF" stroke-width="1.4" opacity="0.22"/>
  <g><path d="M29.6 492 L32.4 464 L39.6 464 L42.4 492 Z" fill="#3B2523"/><circle cx="19.2" cy="456" r="20.8" fill="#5C7346"/><circle cx="36" cy="442.4" r="26.4" fill="#5C7346"/><circle cx="52.8" cy="456" r="20.8" fill="#5C7346"/></g>
  <g><path d="M160.1 492 L162.9 464 L170.1 464 L172.9 492 Z" fill="#3B2523"/><circle cx="149.7" cy="456" r="20.8" fill="#5C7346"/><circle cx="166.5" cy="442.4" r="26.4" fill="#5C7346"/><circle cx="183.3" cy="456" r="20.8" fill="#5C7346"/></g>
  <g><path d="M290.6 492 L293.4 464 L300.6 464 L303.4 492 Z" fill="#3B2523"/><circle cx="280.2" cy="456" r="20.8" fill="#5C7346"/><circle cx="297" cy="442.4" r="26.4" fill="#5C7346"/><circle cx="313.8" cy="456" r="20.8" fill="#5C7346"/></g>
  <g><path d="M421.1 492 L423.9 464 L431.1 464 L433.9 492 Z" fill="#3B2523"/><circle cx="410.7" cy="456" r="20.8" fill="#5C7346"/><circle cx="427.5" cy="442.4" r="26.4" fill="#5C7346"/><circle cx="444.3" cy="456" r="20.8" fill="#5C7346"/></g>
  <g><path d="M551.6 492 L554.4 464 L561.6 464 L564.4 492 Z" fill="#3B2523"/><circle cx="541.2" cy="456" r="20.8" fill="#5C7346"/><circle cx="558" cy="442.4" r="26.4" fill="#5C7346"/><circle cx="574.8" cy="456" r="20.8" fill="#5C7346"/></g>
  <g><path d="M682.1 492 L684.9 464 L692.1 464 L694.9 492 Z" fill="#3B2523"/><circle cx="671.7" cy="456" r="20.8" fill="#5C7346"/><circle cx="688.5" cy="442.4" r="26.4" fill="#5C7346"/><circle cx="705.3" cy="456" r="20.8" fill="#5C7346"/></g>
  <g><path d="M812.6 492 L815.4 464 L822.6 464 L825.4 492 Z" fill="#3B2523"/><circle cx="802.2" cy="456" r="20.8" fill="#5C7346"/><circle cx="819" cy="442.4" r="26.4" fill="#5C7346"/><circle cx="835.8" cy="456" r="20.8" fill="#5C7346"/></g>
  <g><path d="M88.1 630 L92.9 582.4 L105.1 582.4 L109.9 630 Z" fill="#3B2523"/><circle cx="70.4" cy="568.8" r="35.4" fill="#5C7346"/><circle cx="99" cy="545.7" r="44.9" fill="#5C7346"/><circle cx="127.6" cy="568.8" r="35.4" fill="#5C7346"/><circle cx="76.3" cy="563.2" r="10.2" fill="#B4232E"/><circle cx="129.8" cy="543.5" r="10.2" fill="#B4232E"/><circle cx="123.5" cy="575.4" r="10.2" fill="#B4232E"/><circle cx="103.4" cy="580" r="10.2" fill="#B4232E"/><circle cx="71.4" cy="567.2" r="10.2" fill="#B4232E"/></g>
  <g><path d="M218.6 630 L223.4 582.4 L235.6 582.4 L240.4 630 Z" fill="#3B2523"/><circle cx="200.9" cy="568.8" r="35.4" fill="#5C7346"/><circle cx="229.5" cy="545.7" r="44.9" fill="#5C7346"/><circle cx="258.1" cy="568.8" r="35.4" fill="#5C7346"/><circle cx="217.9" cy="537.4" r="10.2" fill="#B4232E"/><circle cx="236.1" cy="553.2" r="10.2" fill="#B4232E"/><circle cx="246.5" cy="538" r="10.2" fill="#B4232E"/><circle cx="261.9" cy="571.3" r="10.2" fill="#B4232E"/><circle cx="247.2" cy="535.1" r="10.2" fill="#B4232E"/></g>
  <g><path d="M349.1 630 L353.9 582.4 L366.1 582.4 L370.9 630 Z" fill="#3B2523"/><circle cx="331.4" cy="568.8" r="35.4" fill="#5C7346"/><circle cx="360" cy="545.7" r="44.9" fill="#5C7346"/><circle cx="388.6" cy="568.8" r="35.4" fill="#5C7346"/><circle cx="326.3" cy="575.8" r="10.2" fill="#B4232E"/><circle cx="371.8" cy="538.3" r="10.2" fill="#B4232E"/><circle cx="365.6" cy="572" r="10.2" fill="#B4232E"/><circle cx="397.2" cy="537.5" r="10.2" fill="#B4232E"/><circle cx="337" cy="546.8" r="10.2" fill="#B4232E"/></g>
  <g><path d="M479.6 630 L484.4 582.4 L496.6 582.4 L501.4 630 Z" fill="#3B2523"/><circle cx="461.9" cy="568.8" r="35.4" fill="#5C7346"/><circle cx="490.5" cy="545.7" r="44.9" fill="#5C7346"/><circle cx="519.1" cy="568.8" r="35.4" fill="#5C7346"/><circle cx="515.1" cy="553.7" r="10.2" fill="#B4232E"/><circle cx="512.7" cy="544.9" r="10.2" fill="#B4232E"/><circle cx="515.4" cy="566.6" r="10.2" fill="#B4232E"/><circle cx="527.6" cy="562.7" r="10.2" fill="#B4232E"/><circle cx="499.9" cy="578.7" r="10.2" fill="#B4232E"/></g>
  <g><path d="M610.1 630 L614.9 582.4 L627.1 582.4 L631.9 630 Z" fill="#3B2523"/><circle cx="592.4" cy="568.8" r="35.4" fill="#5C7346"/><circle cx="621" cy="545.7" r="44.9" fill="#5C7346"/><circle cx="649.6" cy="568.8" r="35.4" fill="#5C7346"/><circle cx="631.9" cy="538.6" r="10.2" fill="#B4232E"/><circle cx="596.9" cy="542" r="10.2" fill="#B4232E"/><circle cx="612.2" cy="564.7" r="10.2" fill="#B4232E"/><circle cx="616" cy="575.9" r="10.2" fill="#B4232E"/><circle cx="608.5" cy="574.4" r="10.2" fill="#B4232E"/></g>
  <g><path d="M740.6 630 L745.4 582.4 L757.6 582.4 L762.4 630 Z" fill="#3B2523"/><circle cx="722.9" cy="568.8" r="35.4" fill="#5C7346"/><circle cx="751.5" cy="545.7" r="44.9" fill="#5C7346"/><circle cx="780.1" cy="568.8" r="35.4" fill="#5C7346"/><circle cx="746.5" cy="557.5" r="10.2" fill="#B4232E"/><circle cx="750.4" cy="558.9" r="10.2" fill="#B4232E"/><circle cx="753.8" cy="537" r="10.2" fill="#B4232E"/><circle cx="743.6" cy="544" r="10.2" fill="#B4232E"/><circle cx="753.7" cy="560.5" r="10.2" fill="#B4232E"/></g>
  <g><path d="M871.1 630 L875.9 582.4 L888.1 582.4 L892.9 630 Z" fill="#3B2523"/><circle cx="853.4" cy="568.8" r="35.4" fill="#5C7346"/><circle cx="882" cy="545.7" r="44.9" fill="#5C7346"/><circle cx="910.6" cy="568.8" r="35.4" fill="#5C7346"/><circle cx="860.2" cy="547.5" r="10.2" fill="#B4232E"/><circle cx="905.3" cy="565.6" r="10.2" fill="#B4232E"/><circle cx="857.6" cy="579.7" r="10.2" fill="#B4232E"/><circle cx="904.1" cy="576.2" r="10.2" fill="#B4232E"/><circle cx="853.8" cy="552.7" r="10.2" fill="#B4232E"/></g>
</svg>
