<svg xmlns="http://www.w3.org/2000/svg" viewBox="0 0 1200 800" width="1200" height="800" role="img">
  <defs>
    <linearGradient id="ceu" x1="0" y1="0" x2="0" y2="1">
      <stop offset="0%" stop-color="#EFF6FA"/>
      <stop offset="55%" stop-color="#D5E8F4"/>
      <stop offset="100%" stop-color="#B4D6EC"/>
    </linearGradient>
    <radialGradient id="vinheta" cx="50%" cy="42%" r="78%">
      <stop offset="62%" stop-color="#000" stop-opacity="0"/>
      <stop offset="100%" stop-color="#000" stop-opacity="0.16"/>
    </radialGradient>
    <filter id="desfoque" x="-25%" y="-25%" width="150%" height="150%">
      <feGaussianBlur stdDeviation="27.2"/>
    </filter>
    <filter id="medio" x="-30%" y="-30%" width="160%" height="160%">
      <feGaussianBlur stdDeviation="10.4"/>
    </filter>
    <filter id="suave" x="-40%" y="-40%" width="180%" height="180%">
      <feGaussianBlur stdDeviation="9.6"/>
    </filter>
    <filter id="grao">
      <feTurbulence type="fractalNoise" baseFrequency="0.9" numOctaves="2" stitchTiles="stitch"/>
      <feColorMatrix type="matrix" values="0 0 0 0 0  0 0 0 0 0  0 0 0 0 0  0.7 0.7 0.7 0 0"/>
    </filter>
  </defs>

  <rect width="1200" height="800" fill="url(#ceu)"/>
  <g filter="url(#desfoque)">
    <rect x="-120" y="304" width="1440" height="600" fill="#9DBB84" opacity="1"/>
    <ellipse cx="360" cy="336" rx="504" ry="96" fill="#AFC996" opacity="1"/>
    <rect x="-120" y="464" width="1440" height="440" fill="#6E9159" opacity="1"/>
    <ellipse cx="864" cy="624" rx="600" ry="240" fill="#4F7345" opacity="1"/>
    <ellipse cx="144" cy="704" rx="408" ry="192" fill="#42663C" opacity="1"/>
  </g>
  
  <g filter="url(#suave)">
    <circle cx="336.5" cy="506.6" r="41.4" fill="#7E1B24" opacity="0.85"/><circle cx="324.1" cy="494.1" r="14.5" fill="#FFFFFF" opacity="0.24"/>
    <circle cx="1053.6" cy="443.4" r="49.9" fill="#7E1B24" opacity="0.85"/><circle cx="1038.7" cy="428.4" r="17.5" fill="#FFFFFF" opacity="0.24"/>
    <circle cx="295.7" cy="722.5" r="54.7" fill="#7E1B24" opacity="0.85"/><circle cx="279.2" cy="706.1" r="19.2" fill="#FFFFFF" opacity="0.24"/>
    <circle cx="345.6" cy="437.8" r="51.4" fill="#A62531" opacity="0.85"/><circle cx="330.2" cy="422.4" r="18" fill="#FFFFFF" opacity="0.24"/>
    <circle cx="558.1" cy="494.2" r="24.7" fill="#A62531" opacity="0.85"/><circle cx="550.8" cy="486.8" r="8.6" fill="#FFFFFF" opacity="0.24"/>
    <circle cx="125.6" cy="613.4" r="43.2" fill="#7E1B24" opacity="0.85"/><circle cx="112.6" cy="600.4" r="15.1" fill="#FFFFFF" opacity="0.24"/>
    <circle cx="77.3" cy="521.7" r="36" fill="#A62531" opacity="0.85"/><circle cx="66.5" cy="510.8" r="12.6" fill="#FFFFFF" opacity="0.24"/>
    <circle cx="569.9" cy="663.5" r="24.7" fill="#A62531" opacity="0.85"/><circle cx="562.5" cy="656.1" r="8.7" fill="#FFFFFF" opacity="0.24"/>
    <circle cx="347.9" cy="427.3" r="34.3" fill="#A62531" opacity="0.85"/><circle cx="337.6" cy="417" r="12" fill="#FFFFFF" opacity="0.24"/>
  </g>
  <rect width="1200" height="800" fill="url(#vinheta)"/>
  <rect width="1200" height="800" filter="url(#grao)" opacity="0.055"/>
</svg>
