<svg xmlns="http://www.w3.org/2000/svg" viewBox="0 0 1200 800" width="1200" height="800" role="img">
  <defs>
    <linearGradient id="ceu" x1="0" y1="0" x2="0" y2="1">
      <stop offset="0%" stop-color="#E6F2F6"/>
      <stop offset="55%" stop-color="#C2E0EA"/>
      <stop offset="100%" stop-color="#96C8DA"/>
    </linearGradient>
    <linearGradient id="agua" x1="0" y1="0" x2="0" y2="1">
      <stop offset="0%" stop-color="#7FC0D8"/>
      <stop offset="60%" stop-color="#4E9BBA"/>
      <stop offset="100%" stop-color="#31768F"/>
    </linearGradient>
  </defs>
  <rect width="1200" height="800" fill="url(#ceu)"/>
  <path d="M0 800 L0 240 Q120 220.3 240 258.7 Q360 183.9 480 222.3 Q600 230 720 268.4 Q840 187.6 960 226 Q1080 237.5 1200 275.9 L1200 800 Z" fill="#7FA394"/>
  <path d="M0 800 L0 336 Q100 324.4 200 356.4 Q300 266.6 400 298.6 Q500 272.8 600 304.8 Q700 328.8 800 360.8 Q900 275.9 1000 307.9 Q1100 301.4 1200 333.4 L1200 800 Z" fill="#4E7A6C"/>
  <rect x="0" y="464" width="1200" height="336" fill="url(#agua)"/>

  <path d="M0 464 L360 464 L240 240 L0 288 Z" fill="#33564E"/>
  <path d="M1200 464 L792 464 L936 224 L1200 272 Z" fill="#33564E"/>
  <path d="M336 464 L576 464 L480 352 Z" fill="#223A36"/>

  <path d="M96 512 Q360 497.6 624 512 T1140 512" stroke="#FFFFFF" stroke-width="1.4" fill="none" opacity="0.3"/>
  <path d="M96 560 Q360 545.6 624 560 T1140 560" stroke="#FFFFFF" stroke-width="1.7" fill="none" opacity="0.3"/>
  <path d="M96 608 Q360 593.6 624 608 T1140 608" stroke="#FFFFFF" stroke-width="2" fill="none" opacity="0.3"/>
  <path d="M96 656 Q360 641.6 624 656 T1140 656" stroke="#FFFFFF" stroke-width="2.3" fill="none" opacity="0.2"/>
  <path d="M96 704 Q360 689.6 624 704 T1140 704" stroke="#FFFFFF" stroke-width="2.6" fill="none" opacity="0.2"/>
  <path d="M96 752 Q360 737.6 624 752 T1140 752" stroke="#FFFFFF" stroke-width="2.9" fill="none" opacity="0.1"/>
  <g><path d="M66.7 456 L69 432.7 L75 432.7 L77.3 456 Z" fill="#2F4A42"/><circle cx="58" cy="426" r="17.3" fill="#4E7A6C"/><circle cx="72" cy="414.7" r="22" fill="#4E7A6C"/><circle cx="86" cy="426" r="17.3" fill="#4E7A6C"/></g>
  <g><path d="M138.7 456 L141 432.7 L147 432.7 L149.3 456 Z" fill="#2F4A42"/><circle cx="130" cy="426" r="17.3" fill="#4E7A6C"/><circle cx="144" cy="414.7" r="22" fill="#4E7A6C"/><circle cx="158" cy="426" r="17.3" fill="#4E7A6C"/></g>
  <g><path d="M210.7 456 L213 432.7 L219 432.7 L221.3 456 Z" fill="#2F4A42"/><circle cx="202" cy="426" r="17.3" fill="#4E7A6C"/><circle cx="216" cy="414.7" r="22" fill="#4E7A6C"/><circle cx="230" cy="426" r="17.3" fill="#4E7A6C"/></g>
  <g><path d="M282.7 456 L285 432.7 L291 432.7 L293.3 456 Z" fill="#2F4A42"/><circle cx="274" cy="426" r="17.3" fill="#4E7A6C"/><circle cx="288" cy="414.7" r="22" fill="#4E7A6C"/><circle cx="302" cy="426" r="17.3" fill="#4E7A6C"/></g>
</svg>
