<svg xmlns="http://www.w3.org/2000/svg" viewBox="0 0 1200 800" width="1200" height="800" role="img">
  <defs>
    <linearGradient id="ceu" x1="0" y1="0" x2="0" y2="1">
      <stop offset="0%" stop-color="#FBEEDD"/>
      <stop offset="55%" stop-color="#F6D9B4"/>
      <stop offset="100%" stop-color="#EDBE8D"/>
    </linearGradient>
    <radialGradient id="vinheta" cx="50%" cy="42%" r="78%">
      <stop offset="62%" stop-color="#000" stop-opacity="0"/>
      <stop offset="100%" stop-color="#000" stop-opacity="0.16"/>
    </radialGradient>
    <filter id="desfoque" x="-25%" y="-25%" width="150%" height="150%">
      <feGaussianBlur stdDeviation="27.2"/>
    </filter>
    <filter id="medio" x="-30%" y="-30%" width="160%" height="160%">
      <feGaussianBlur stdDeviation="10.4"/>
    </filter>
    <filter id="suave" x="-40%" y="-40%" width="180%" height="180%">
      <feGaussianBlur stdDeviation="9.6"/>
    </filter>
    <filter id="grao">
      <feTurbulence type="fractalNoise" baseFrequency="0.9" numOctaves="2" stitchTiles="stitch"/>
      <feColorMatrix type="matrix" values="0 0 0 0 0  0 0 0 0 0  0 0 0 0 0  0.7 0.7 0.7 0 0"/>
    </filter>
  </defs>

  <rect width="1200" height="800" fill="url(#ceu)"/>
  <g filter="url(#desfoque)">
    <rect x="-120" y="400" width="1440" height="520" fill="#C0996F" opacity="1"/>
    <ellipse cx="600" cy="416" rx="408" ry="128" fill="#CBA57B" opacity="1"/>
    <ellipse cx="528" cy="352" rx="60" ry="80" fill="#B08A5C" opacity="1"/>
    <ellipse cx="636" cy="320" rx="42" ry="112" fill="#A67F52" opacity="1"/>
    <ellipse cx="732" cy="360" rx="60" ry="72" fill="#B08A5C" opacity="1"/>
    <rect x="-120" y="560" width="1440" height="360" fill="#8F6B47" opacity="1"/>
    <ellipse cx="1020" cy="736" rx="408" ry="176" fill="#7A5A3C" opacity="1"/>
  </g>
  
  <g filter="url(#suave)">
    <circle cx="884.6" cy="128" r="40" fill="#FFF4DE" opacity="0.9"/><circle cx="872.6" cy="116" r="14" fill="#FFFFFF" opacity="0.25"/>
  </g>
  <rect width="1200" height="800" fill="url(#vinheta)"/>
  <rect width="1200" height="800" filter="url(#grao)" opacity="0.055"/>
</svg>
